<svg width="80" height="171" viewBox="0 0 80 171" fill="none" xmlns="http://www.w3.org/2000/svg">
<path id="Pattern" opacity="0.3" fill-rule="evenodd" clip-rule="evenodd" d="M153 4.34839C153 6.72789 150.985 8.65686 148.5 8.65686C146.015 8.65686 144 6.72789 144 4.34839C144 1.96889 146.015 0.039917 148.5 0.039917C150.985 0.039917 153 1.96889 153 4.34839ZM148.5 31.6355C150.985 31.6355 153 29.7065 153 27.327C153 24.9475 150.985 23.0186 148.5 23.0186C146.015 23.0186 144 24.9475 144 27.327C144 29.7065 146.015 31.6355 148.5 31.6355ZM153 50.3055C153 52.685 150.985 54.614 148.5 54.614C146.015 54.614 144 52.685 144 50.3055C144 47.926 146.015 45.997 148.5 45.997C150.985 45.997 153 47.926 153 50.3055ZM148.5 77.5926C150.985 77.5926 153 75.6636 153 73.2841C153 70.9046 150.985 68.9756 148.5 68.9756C146.015 68.9756 144 70.9046 144 73.2841C144 75.6636 146.015 77.5926 148.5 77.5926ZM153 96.2624C153 98.6419 150.985 100.571 148.5 100.571C146.015 100.571 144 98.6419 144 96.2624C144 93.8829 146.015 91.9539 148.5 91.9539C150.985 91.9539 153 93.8829 153 96.2624ZM148.5 123.549C150.985 123.549 153 121.621 153 119.241C153 116.862 150.985 114.933 148.5 114.933C146.015 114.933 144 116.862 144 119.241C144 121.621 146.015 123.549 148.5 123.549ZM153 142.219C153 144.599 150.985 146.528 148.5 146.528C146.015 146.528 144 144.599 144 142.219C144 139.84 146.015 137.911 148.5 137.911C150.985 137.911 153 139.84 153 142.219ZM4.5 169.506C6.98528 169.506 9 167.577 9 165.198C9 162.818 6.98528 160.889 4.5 160.889C2.01472 160.889 0 162.818 0 165.198C0 167.577 2.01472 169.506 4.5 169.506ZM33 165.198C33 167.577 30.9853 169.506 28.5 169.506C26.0147 169.506 24 167.577 24 165.198C24 162.818 26.0147 160.889 28.5 160.889C30.9853 160.889 33 162.818 33 165.198ZM52.5 169.506C54.9853 169.506 57 167.577 57 165.198C57 162.818 54.9853 160.889 52.5 160.889C50.0147 160.889 48 162.818 48 165.198C48 167.577 50.0147 169.506 52.5 169.506ZM81 165.198C81 167.577 78.9853 169.506 76.5 169.506C74.0147 169.506 72 167.577 72 165.198C72 162.818 74.0147 160.889 76.5 160.889C78.9853 160.889 81 162.818 81 165.198ZM100.5 169.506C102.985 169.506 105 167.577 105 165.198C105 162.818 102.985 160.889 100.5 160.889C98.0147 160.889 96 162.818 96 165.198C96 167.577 98.0147 169.506 100.5 169.506ZM129 165.198C129 167.577 126.985 169.506 124.5 169.506C122.015 169.506 120 167.577 120 165.198C120 162.818 122.015 160.889 124.5 160.889C126.985 160.889 129 162.818 129 165.198ZM153 165.198C153 167.577 150.985 169.506 148.5 169.506C146.015 169.506 144 167.577 144 165.198C144 162.818 146.015 160.889 148.5 160.889C150.985 160.889 153 162.818 153 165.198ZM124.5 146.528C126.985 146.528 129 144.599 129 142.219C129 139.84 126.985 137.911 124.5 137.911C122.015 137.911 120 139.84 120 142.219C120 144.599 122.015 146.528 124.5 146.528ZM105 142.219C105 144.599 102.985 146.528 100.5 146.528C98.0147 146.528 96 144.599 96 142.219C96 139.84 98.0147 137.911 100.5 137.911C102.985 137.911 105 139.84 105 142.219ZM76.5 146.528C78.9853 146.528 81 144.599 81 142.219C81 139.84 78.9853 137.911 76.5 137.911C74.0147 137.911 72 139.84 72 142.219C72 144.599 74.0147 146.528 76.5 146.528ZM57 142.219C57 144.599 54.9853 146.528 52.5 146.528C50.0147 146.528 48 144.599 48 142.219C48 139.84 50.0147 137.911 52.5 137.911C54.9853 137.911 57 139.84 57 142.219ZM28.5 146.528C30.9853 146.528 33 144.599 33 142.219C33 139.84 30.9853 137.911 28.5 137.911C26.0147 137.911 24 139.84 24 142.219C24 144.599 26.0147 146.528 28.5 146.528ZM9 142.219C9 144.599 6.98528 146.528 4.5 146.528C2.01472 146.528 0 144.599 0 142.219C0 139.84 2.01472 137.911 4.5 137.911C6.98528 137.911 9 139.84 9 142.219ZM129 119.241C129 121.621 126.985 123.549 124.5 123.549C122.015 123.549 120 121.621 120 119.241C120 116.862 122.015 114.933 124.5 114.933C126.985 114.933 129 116.862 129 119.241ZM100.5 123.549C102.985 123.549 105 121.621 105 119.241C105 116.862 102.985 114.933 100.5 114.933C98.0147 114.933 96 116.862 96 119.241C96 121.621 98.0147 123.549 100.5 123.549ZM81 119.241C81 121.621 78.9853 123.549 76.5 123.549C74.0147 123.549 72 121.621 72 119.241C72 116.862 74.0147 114.933 76.5 114.933C78.9853 114.933 81 116.862 81 119.241ZM52.5 123.549C54.9853 123.549 57 121.621 57 119.241C57 116.862 54.9853 114.933 52.5 114.933C50.0147 114.933 48 116.862 48 119.241C48 121.621 50.0147 123.549 52.5 123.549ZM33 119.241C33 121.621 30.9853 123.549 28.5 123.549C26.0147 123.549 24 121.621 24 119.241C24 116.862 26.0147 114.933 28.5 114.933C30.9853 114.933 33 116.862 33 119.241ZM4.5 123.549C6.98528 123.549 9 121.621 9 119.241C9 116.862 6.98528 114.933 4.5 114.933C2.01472 114.933 0 116.862 0 119.241C0 121.621 2.01472 123.549 4.5 123.549ZM124.5 100.571C126.985 100.571 129 98.6419 129 96.2624C129 93.8829 126.985 91.9539 124.5 91.9539C122.015 91.9539 120 93.8829 120 96.2624C120 98.6419 122.015 100.571 124.5 100.571ZM105 96.2624C105 98.6419 102.985 100.571 100.5 100.571C98.0147 100.571 96 98.6419 96 96.2624C96 93.8829 98.0147 91.9539 100.5 91.9539C102.985 91.9539 105 93.8829 105 96.2624ZM76.5 100.571C78.9853 100.571 81 98.6419 81 96.2624C81 93.8829 78.9853 91.9539 76.5 91.9539C74.0147 91.9539 72 93.8829 72 96.2624C72 98.6419 74.0147 100.571 76.5 100.571ZM57 96.2624C57 98.6419 54.9853 100.571 52.5 100.571C50.0147 100.571 48 98.6419 48 96.2624C48 93.8829 50.0147 91.9539 52.5 91.9539C54.9853 91.9539 57 93.8829 57 96.2624ZM28.5 100.571C30.9853 100.571 33 98.6419 33 96.2624C33 93.8829 30.9853 91.9539 28.5 91.9539C26.0147 91.9539 24 93.8829 24 96.2624C24 98.6419 26.0147 100.571 28.5 100.571ZM9 96.2624C9 98.6419 6.98528 100.571 4.5 100.571C2.01472 100.571 0 98.6419 0 96.2624C0 93.8829 2.01472 91.9539 4.5 91.9539C6.98528 91.9539 9 93.8829 9 96.2624ZM129 73.2841C129 75.6636 126.985 77.5926 124.5 77.5926C122.015 77.5926 120 75.6636 120 73.2841C120 70.9046 122.015 68.9756 124.5 68.9756C126.985 68.9756 129 70.9046 129 73.2841ZM100.5 77.5926C102.985 77.5926 105 75.6636 105 73.2841C105 70.9046 102.985 68.9756 100.5 68.9756C98.0147 68.9756 96 70.9046 96 73.2841C96 75.6636 98.0147 77.5926 100.5 77.5926ZM81 73.2841C81 75.6636 78.9853 77.5926 76.5 77.5926C74.0147 77.5926 72 75.6636 72 73.2841C72 70.9046 74.0147 68.9756 76.5 68.9756C78.9853 68.9756 81 70.9046 81 73.2841ZM52.5 77.5926C54.9853 77.5926 57 75.6636 57 73.2841C57 70.9046 54.9853 68.9756 52.5 68.9756C50.0147 68.9756 48 70.9046 48 73.2841C48 75.6636 50.0147 77.5926 52.5 77.5926ZM33 73.2841C33 75.6636 30.9853 77.5926 28.5 77.5926C26.0147 77.5926 24 75.6636 24 73.2841C24 70.9046 26.0147 68.9756 28.5 68.9756C30.9853 68.9756 33 70.9046 33 73.2841ZM4.5 77.5926C6.98528 77.5926 9 75.6636 9 73.2841C9 70.9046 6.98528 68.9756 4.5 68.9756C2.01472 68.9756 0 70.9046 0 73.2841C0 75.6636 2.01472 77.5926 4.5 77.5926ZM124.5 54.614C126.985 54.614 129 52.685 129 50.3055C129 47.926 126.985 45.997 124.5 45.997C122.015 45.997 120 47.926 120 50.3055C120 52.685 122.015 54.614 124.5 54.614ZM105 50.3055C105 52.685 102.985 54.614 100.5 54.614C98.0147 54.614 96 52.685 96 50.3055C96 47.926 98.0147 45.997 100.5 45.997C102.985 45.997 105 47.926 105 50.3055ZM76.5 54.614C78.9853 54.614 81 52.685 81 50.3055C81 47.926 78.9853 45.997 76.5 45.997C74.0147 45.997 72 47.926 72 50.3055C72 52.685 74.0147 54.614 76.5 54.614ZM57 50.3055C57 52.685 54.9853 54.614 52.5 54.614C50.0147 54.614 48 52.685 48 50.3055C48 47.926 50.0147 45.997 52.5 45.997C54.9853 45.997 57 47.926 57 50.3055ZM28.5 54.614C30.9853 54.614 33 52.685 33 50.3055C33 47.926 30.9853 45.997 28.5 45.997C26.0147 45.997 24 47.926 24 50.3055C24 52.685 26.0147 54.614 28.5 54.614ZM9 50.3055C9 52.685 6.98528 54.614 4.5 54.614C2.01472 54.614 0 52.685 0 50.3055C0 47.926 2.01472 45.997 4.5 45.997C6.98528 45.997 9 47.926 9 50.3055ZM129 27.327C129 29.7065 126.985 31.6355 124.5 31.6355C122.015 31.6355 120 29.7065 120 27.327C120 24.9475 122.015 23.0186 124.5 23.0186C126.985 23.0186 129 24.9475 129 27.327ZM100.5 31.6355C102.985 31.6355 105 29.7065 105 27.327C105 24.9475 102.985 23.0186 100.5 23.0186C98.0147 23.0186 96 24.9475 96 27.327C96 29.7065 98.0147 31.6355 100.5 31.6355ZM81 27.327C81 29.7065 78.9853 31.6355 76.5 31.6355C74.0147 31.6355 72 29.7065 72 27.327C72 24.9475 74.0147 23.0186 76.5 23.0186C78.9853 23.0186 81 24.9475 81 27.327ZM52.5 31.6355C54.9853 31.6355 57 29.7065 57 27.327C57 24.9475 54.9853 23.0186 52.5 23.0186C50.0147 23.0186 48 24.9475 48 27.327C48 29.7065 50.0147 31.6355 52.5 31.6355ZM33 27.327C33 29.7065 30.9853 31.6355 28.5 31.6355C26.0147 31.6355 24 29.7065 24 27.327C24 24.9475 26.0147 23.0186 28.5 23.0186C30.9853 23.0186 33 24.9475 33 27.327ZM4.5 31.6355C6.98528 31.6355 9 29.7065 9 27.327C9 24.9475 6.98528 23.0186 4.5 23.0186C2.01472 23.0186 0 24.9475 0 27.327C0 29.7065 2.01472 31.6355 4.5 31.6355ZM124.5 8.65686C126.985 8.65686 129 6.72789 129 4.34839C129 1.96889 126.985 0.039917 124.5 0.039917C122.015 0.039917 120 1.96889 120 4.34839C120 6.72789 122.015 8.65686 124.5 8.65686ZM105 4.34839C105 6.72789 102.985 8.65686 100.5 8.65686C98.0147 8.65686 96 6.72789 96 4.34839C96 1.96889 98.0147 0.039917 100.5 0.039917C102.985 0.039917 105 1.96889 105 4.34839ZM76.5 8.65686C78.9853 8.65686 81 6.72789 81 4.34839C81 1.96889 78.9853 0.039917 76.5 0.039917C74.0147 0.039917 72 1.96889 72 4.34839C72 6.72789 74.0147 8.65686 76.5 8.65686ZM57 4.34839C57 6.72789 54.9853 8.65686 52.5 8.65686C50.0147 8.65686 48 6.72789 48 4.34839C48 1.96889 50.0147 0.039917 52.5 0.039917C54.9853 0.039917 57 1.96889 57 4.34839ZM28.5 8.65686C30.9853 8.65686 33 6.72789 33 4.34839C33 1.96889 30.9853 0.039917 28.5 0.039917C26.0147 0.039917 24 1.96889 24 4.34839C24 6.72789 26.0147 8.65686 28.5 8.65686ZM9 4.34839C9 6.72789 6.98528 8.65686 4.5 8.65686C2.01472 8.65686 0 6.72789 0 4.34839C0 1.96889 2.01472 0.039917 4.5 0.039917C6.98528 0.039917 9 1.96889 9 4.34839Z" fill="#643BDA"/>
</svg>
